<?xml version="1.0" standalone="no"?>
<!DOCTYPE svg PUBLIC "-//W3C//DTD SVG 20010904//EN"
 "http://www.w3.org/TR/2001/REC-SVG-20010904/DTD/svg10.dtd">
<svg version="1.0" xmlns="http://www.w3.org/2000/svg"
 width="189.000000pt" height="267.000000pt" viewBox="0 0 189.000000 267.000000"
 preserveAspectRatio="xMidYMid meet">

<g transform="translate(0.000000,267.000000) scale(0.100000,-0.100000)"
fill="#000000" stroke="none">
<path d="M395 2101 c-162 -267 -254 -651 -225 -936 43 -428 294 -588 715 -458
73 22 539 242 531 250 -9 10 -162 -33 -245 -69 -452 -194 -721 -169 -846 79
-49 99 -60 163 -59 353 0 240 38 446 133 726 21 63 37 114 36 114 -2 0 -20
-27 -40 -59z"/>
<path d="M1270 1205 c0 -1 35 -26 78 -54 72 -47 124 -70 194 -85 l27 -6 -46
-78 c-95 -160 -153 -321 -153 -428 0 -66 7 -63 40 16 31 76 120 227 198 335
101 142 135 220 107 249 -13 12 -36 14 -133 10 -102 -5 -130 -2 -214 19 -54
13 -98 23 -98 22z"/>
</g>
</svg>
