<?xml version="1.0" standalone="no"?>
<!DOCTYPE svg PUBLIC "-//W3C//DTD SVG 20010904//EN"
 "http://www.w3.org/TR/2001/REC-SVG-20010904/DTD/svg10.dtd">
<svg version="1.0" xmlns="http://www.w3.org/2000/svg"
 width="218.000000pt" height="231.000000pt" viewBox="0 0 218.000000 231.000000"
 preserveAspectRatio="xMidYMid meet">

<g transform="translate(0.000000,231.000000) scale(0.100000,-0.100000)"
fill="#000000" stroke="none">
<path d="M1985 1440 c-49 -9 -152 -28 -227 -41 l-137 -23 45 -52 c24 -29 44
-56 44 -61 0 -14 -152 -111 -236 -149 -42 -20 -120 -47 -173 -62 -85 -23 -115
-25 -266 -25 -186 0 -280 15 -460 75 -102 34 -301 126 -390 182 -57 35 -58 35
-25 6 97 -85 332 -224 475 -280 203 -80 293 -100 491 -107 246 -9 401 27 621
141 87 46 110 54 118 43 31 -42 67 -79 71 -74 3 3 39 97 79 209 40 112 76 211
80 221 8 20 9 20 -110 -3z"/>
</g>
</svg>
